<mxfile host="app.diagrams.net" agent="Mozilla/5.0 (Windows NT 10.0; Win64; x64; rv:128.0) Gecko/20100101 Firefox/128.0" version="24.7.4">
  <diagram id="C5RBs43oDa-KdzZeNtuy" name="Page-1">
    <mxGraphModel dx="802" dy="627" grid="1" gridSize="10" guides="1" tooltips="1" connect="1" arrows="1" fold="1" page="1" pageScale="1" pageWidth="827" pageHeight="1169" math="0" shadow="0">
      <root>
        <mxCell id="WIyWlLk6GJQsqaUBKTNV-0" />
        <mxCell id="WIyWlLk6GJQsqaUBKTNV-1" parent="WIyWlLk6GJQsqaUBKTNV-0" />
        <mxCell id="6FuJvIswQtkl7MqxrZb2-9" value="" style="edgeStyle=none;curved=1;rounded=0;orthogonalLoop=1;jettySize=auto;html=1;fontSize=12;startSize=8;endSize=8;" edge="1" parent="WIyWlLk6GJQsqaUBKTNV-1" source="6FuJvIswQtkl7MqxrZb2-3" target="6FuJvIswQtkl7MqxrZb2-8">
          <mxGeometry relative="1" as="geometry" />
        </mxCell>
        <mxCell id="6FuJvIswQtkl7MqxrZb2-3" value="back_button" style="strokeWidth=2;html=1;shape=mxgraph.flowchart.terminator;whiteSpace=wrap;" vertex="1" parent="WIyWlLk6GJQsqaUBKTNV-1">
          <mxGeometry x="85" y="10" width="100" height="60" as="geometry" />
        </mxCell>
        <mxCell id="6FuJvIswQtkl7MqxrZb2-4" value="end" style="strokeWidth=2;html=1;shape=mxgraph.flowchart.terminator;whiteSpace=wrap;" vertex="1" parent="WIyWlLk6GJQsqaUBKTNV-1">
          <mxGeometry x="85" y="400" width="100" height="60" as="geometry" />
        </mxCell>
        <mxCell id="6FuJvIswQtkl7MqxrZb2-11" value="" style="edgeStyle=none;curved=1;rounded=0;orthogonalLoop=1;jettySize=auto;html=1;fontSize=12;startSize=8;endSize=8;" edge="1" parent="WIyWlLk6GJQsqaUBKTNV-1" source="6FuJvIswQtkl7MqxrZb2-8" target="6FuJvIswQtkl7MqxrZb2-10">
          <mxGeometry relative="1" as="geometry" />
        </mxCell>
        <mxCell id="6FuJvIswQtkl7MqxrZb2-8" value="forget checkoutFrame" style="shape=parallelogram;perimeter=parallelogramPerimeter;whiteSpace=wrap;html=1;fixedSize=1;strokeWidth=2;" vertex="1" parent="WIyWlLk6GJQsqaUBKTNV-1">
          <mxGeometry x="50" y="120" width="170" height="60" as="geometry" />
        </mxCell>
        <mxCell id="6FuJvIswQtkl7MqxrZb2-14" value="" style="edgeStyle=none;curved=1;rounded=0;orthogonalLoop=1;jettySize=auto;html=1;fontSize=12;startSize=8;endSize=8;" edge="1" parent="WIyWlLk6GJQsqaUBKTNV-1" source="6FuJvIswQtkl7MqxrZb2-10" target="6FuJvIswQtkl7MqxrZb2-13">
          <mxGeometry relative="1" as="geometry" />
        </mxCell>
        <mxCell id="6FuJvIswQtkl7MqxrZb2-10" value="place masterFrame" style="shape=parallelogram;perimeter=parallelogramPerimeter;whiteSpace=wrap;html=1;fixedSize=1;strokeWidth=2;" vertex="1" parent="WIyWlLk6GJQsqaUBKTNV-1">
          <mxGeometry x="60" y="210" width="150" height="60" as="geometry" />
        </mxCell>
        <mxCell id="6FuJvIswQtkl7MqxrZb2-15" value="" style="edgeStyle=none;curved=1;rounded=0;orthogonalLoop=1;jettySize=auto;html=1;fontSize=12;startSize=8;endSize=8;" edge="1" parent="WIyWlLk6GJQsqaUBKTNV-1" source="6FuJvIswQtkl7MqxrZb2-13" target="6FuJvIswQtkl7MqxrZb2-4">
          <mxGeometry relative="1" as="geometry" />
        </mxCell>
        <mxCell id="6FuJvIswQtkl7MqxrZb2-13" value="Print &quot;Back button was pressed&quot;" style="shape=parallelogram;perimeter=parallelogramPerimeter;whiteSpace=wrap;html=1;fixedSize=1;strokeWidth=2;" vertex="1" parent="WIyWlLk6GJQsqaUBKTNV-1">
          <mxGeometry x="60" y="310" width="150" height="60" as="geometry" />
        </mxCell>
        <mxCell id="6FuJvIswQtkl7MqxrZb2-16" value="" style="edgeStyle=none;curved=1;rounded=0;orthogonalLoop=1;jettySize=auto;html=1;fontSize=12;startSize=8;endSize=8;" edge="1" parent="WIyWlLk6GJQsqaUBKTNV-1" source="6FuJvIswQtkl7MqxrZb2-17" target="6FuJvIswQtkl7MqxrZb2-20">
          <mxGeometry relative="1" as="geometry" />
        </mxCell>
        <mxCell id="6FuJvIswQtkl7MqxrZb2-17" value="payment_button" style="strokeWidth=2;html=1;shape=mxgraph.flowchart.terminator;whiteSpace=wrap;" vertex="1" parent="WIyWlLk6GJQsqaUBKTNV-1">
          <mxGeometry x="255" y="10" width="100" height="60" as="geometry" />
        </mxCell>
        <mxCell id="6FuJvIswQtkl7MqxrZb2-18" value="end" style="strokeWidth=2;html=1;shape=mxgraph.flowchart.terminator;whiteSpace=wrap;" vertex="1" parent="WIyWlLk6GJQsqaUBKTNV-1">
          <mxGeometry x="255" y="400" width="100" height="60" as="geometry" />
        </mxCell>
        <mxCell id="6FuJvIswQtkl7MqxrZb2-19" value="" style="edgeStyle=none;curved=1;rounded=0;orthogonalLoop=1;jettySize=auto;html=1;fontSize=12;startSize=8;endSize=8;" edge="1" parent="WIyWlLk6GJQsqaUBKTNV-1" source="6FuJvIswQtkl7MqxrZb2-20" target="6FuJvIswQtkl7MqxrZb2-22">
          <mxGeometry relative="1" as="geometry" />
        </mxCell>
        <mxCell id="6FuJvIswQtkl7MqxrZb2-20" value="forget checkoutFrame" style="shape=parallelogram;perimeter=parallelogramPerimeter;whiteSpace=wrap;html=1;fixedSize=1;strokeWidth=2;" vertex="1" parent="WIyWlLk6GJQsqaUBKTNV-1">
          <mxGeometry x="220" y="120" width="170" height="60" as="geometry" />
        </mxCell>
        <mxCell id="6FuJvIswQtkl7MqxrZb2-21" value="" style="edgeStyle=none;curved=1;rounded=0;orthogonalLoop=1;jettySize=auto;html=1;fontSize=12;startSize=8;endSize=8;" edge="1" parent="WIyWlLk6GJQsqaUBKTNV-1" source="6FuJvIswQtkl7MqxrZb2-22" target="6FuJvIswQtkl7MqxrZb2-24">
          <mxGeometry relative="1" as="geometry" />
        </mxCell>
        <mxCell id="6FuJvIswQtkl7MqxrZb2-22" value="place choiceFrame" style="shape=parallelogram;perimeter=parallelogramPerimeter;whiteSpace=wrap;html=1;fixedSize=1;strokeWidth=2;" vertex="1" parent="WIyWlLk6GJQsqaUBKTNV-1">
          <mxGeometry x="230" y="210" width="150" height="60" as="geometry" />
        </mxCell>
        <mxCell id="6FuJvIswQtkl7MqxrZb2-23" value="" style="edgeStyle=none;curved=1;rounded=0;orthogonalLoop=1;jettySize=auto;html=1;fontSize=12;startSize=8;endSize=8;" edge="1" parent="WIyWlLk6GJQsqaUBKTNV-1" source="6FuJvIswQtkl7MqxrZb2-24" target="6FuJvIswQtkl7MqxrZb2-18">
          <mxGeometry relative="1" as="geometry" />
        </mxCell>
        <mxCell id="6FuJvIswQtkl7MqxrZb2-24" value="Print &quot;Proceeding to payment section...&quot;" style="shape=parallelogram;perimeter=parallelogramPerimeter;whiteSpace=wrap;html=1;fixedSize=1;strokeWidth=2;" vertex="1" parent="WIyWlLk6GJQsqaUBKTNV-1">
          <mxGeometry x="230" y="310" width="150" height="60" as="geometry" />
        </mxCell>
      </root>
    </mxGraphModel>
  </diagram>
</mxfile>
